<?xml version="1.0" standalone="no"?>
<!DOCTYPE svg PUBLIC "-//W3C//DTD SVG 20010904//EN"
 "http://www.w3.org/TR/2001/REC-SVG-20010904/DTD/svg10.dtd">
<svg version="1.0" xmlns="http://www.w3.org/2000/svg"
 width="72.000000pt" height="72.000000pt" viewBox="0 0 72.000000 72.000000"
 preserveAspectRatio="xMidYMid meet">
<metadata>
Created by potrace 1.10, written by Peter Selinger 2001-2011
</metadata>
<g transform="translate(0.000000,72.000000) scale(0.070312,-0.070312)"
fill="#000000" stroke="none">
<path d="M451 941 c-1 -4 -5 -7 -11 -11 -4 -2 -7 -5 -8 -7 -1 -2 -5 -7 -9 -11
-4 -5 -6 -8 -7 -11 -1 -3 -1 -5 -2 -6 0 0 0 -8 -1 -17 -1 -21 -2 -27 -6 -43
-2 -8 -4 -17 -4 -19 -1 -7 -4 -10 -12 -15 -3 -3 -8 -6 -9 -8 -2 -2 -6 -5 -9
-6 -4 -2 -9 -5 -12 -7 -6 -5 -10 -7 -22 -9 -16 -2 -19 -3 -30 -9 -9 -4 -12 -5
-22 -7 -13 -2 -18 -4 -25 -8 -8 -5 -12 -6 -21 -7 -13 -3 -17 -4 -24 -9 -3 -2
-10 -6 -15 -8 -5 -3 -10 -6 -13 -9 -3 -3 -7 -5 -13 -7 -6 -2 -10 -5 -13 -8 -3
-3 -8 -6 -12 -8 -3 -2 -8 -5 -10 -8 -2 -2 -6 -6 -9 -7 -6 -5 -8 -9 -9 -20 0
-9 1 -13 5 -16 5 -3 10 -3 32 -2 23 2 33 4 54 8 19 5 26 6 49 7 35 2 45 3 69
9 20 5 27 6 51 7 35 2 49 4 70 9 16 4 28 6 51 7 34 2 49 4 70 9 16 4 28 6 51
7 35 2 45 3 69 9 20 5 27 6 51 7 36 2 49 4 70 9 16 4 21 5 40 6 20 2 23 3 27
10 1 3 2 6 2 12 0 10 -2 13 -12 18 -3 2 -9 5 -11 7 -5 4 -9 6 -19 9 -3 0 -9 3
-12 5 -4 2 -8 5 -10 6 -5 1 -22 4 -34 4 -24 2 -49 4 -74 7 -30 4 -51 6 -67 6
-16 0 -32 3 -47 9 -7 3 -13 6 -14 7 -3 2 -5 7 -7 14 -1 3 -3 7 -4 9 -1 2 -4 6
-5 8 -2 3 -4 8 -5 12 -2 9 -4 12 -9 19 -2 2 -5 8 -6 12 -4 11 -6 14 -16 23 -6
5 -9 9 -10 12 l-1 3 -35 0 -35 0 0 -3z m45 -44 c10 -5 12 -7 15 -15 1 -4 4
-10 6 -13 5 -8 6 -10 9 -24 2 -11 3 -15 7 -22 4 -10 5 -13 2 -15 -3 -3 -7 -4
-32 -6 -13 0 -29 -2 -34 -3 -10 -1 -11 -1 -13 1 -5 3 -5 5 -5 23 2 29 7 58 13
66 4 5 7 8 13 10 6 2 10 1 19 -2z"/>
<path d="M366 622 c-153 -1 -210 -1 -214 -2 -7 -1 -11 -4 -15 -10 -6 -8 -3
-16 7 -22 7 -4 10 -7 12 -12 2 -5 1 -15 -1 -19 -2 -5 -5 -5 -13 -1 -7 4 -13 5
-32 7 -16 1 -24 3 -35 7 -15 6 -24 7 -40 7 l-14 1 -7 -4 c-4 -2 -9 -4 -11 -4
l-3 -1 0 -22 0 -22 4 -1 c6 -1 6 -1 14 -6 8 -5 13 -7 29 -9 13 -1 19 -3 34 -9
7 -3 12 -5 26 -7 19 -2 22 -3 29 -8 3 -2 8 -5 11 -7 6 -2 7 -4 8 -6 1 -2 2
-13 3 -29 3 -37 4 -48 8 -74 1 -13 4 -35 6 -51 2 -31 4 -39 8 -48 6 -15 7 -19
9 -35 2 -19 5 -29 10 -38 1 -3 4 -11 5 -16 3 -10 5 -15 10 -21 3 -3 5 -7 6
-12 4 -10 5 -13 10 -19 3 -2 6 -7 8 -11 2 -3 5 -7 7 -9 2 -1 6 -4 8 -7 2 -2 6
-5 8 -5 2 -1 12 -3 23 -4 23 -2 38 -6 42 -11 1 -2 19 -2 186 -2 157 0 185 0
186 1 3 5 18 9 42 11 43 3 41 3 48 6 7 4 11 9 16 18 2 4 4 8 6 9 2 2 5 6 8 11
2 4 6 10 8 13 5 5 7 9 10 19 1 4 4 10 5 13 6 10 7 12 10 26 2 10 4 17 7 22 4
10 7 19 8 37 1 8 3 20 4 26 7 32 10 58 12 103 2 60 5 86 8 91 2 3 9 6 17 8 8
2 15 4 23 8 7 4 13 5 33 9 9 1 12 2 20 6 8 5 23 9 36 12 l5 1 0 21 0 22 -3 0
c-1 0 -6 2 -10 4 -8 3 -9 3 -20 3 -16 0 -45 -3 -57 -5 -5 -1 -13 -3 -17 -5
-14 -4 -26 -5 -28 -1 -1 4 3 11 14 23 3 3 5 6 5 7 2 9 -7 20 -17 23 -4 1 -191
1 -525 0z"/>
</g>
</svg>
